<svg width="30" height="22" viewBox="0 0 30 22" fill="none" xmlns="http://www.w3.org/2000/svg">
<path d="M6.625 12.875C8.20833 12.5 9.66667 12.3125 11 12.3125C12.3333 12.3125 13.7917 12.5 15.375 12.875C16.9583 13.25 18.3958 13.875 19.6875 14.75C21.0208 15.625 21.6875 16.6042 21.6875 17.6875V21.6875H0.3125V17.6875C0.3125 16.6042 0.958333 15.625 2.25 14.75C3.58333 13.875 5.04167 13.25 6.625 12.875ZM19 11C18.4583 11 17.875 10.8958 17.25 10.6875C18.4167 9.3125 19 7.64583 19 5.6875C19 4.89583 18.8333 4 18.5 3C18.1667 2 17.75 1.20833 17.25 0.625C17.875 0.416667 18.4583 0.3125 19 0.3125C20.4583 0.3125 21.7083 0.854167 22.75 1.9375C23.7917 2.97917 24.3125 4.22917 24.3125 5.6875C24.3125 7.14583 23.7917 8.39583 22.75 9.4375C21.7083 10.4792 20.4583 11 19 11ZM7.25 9.4375C6.20833 8.39583 5.6875 7.14583 5.6875 5.6875C5.6875 4.22917 6.20833 2.97917 7.25 1.9375C8.29167 0.854167 9.54167 0.3125 11 0.3125C12.4583 0.3125 13.7083 0.854167 14.75 1.9375C15.7917 2.97917 16.3125 4.22917 16.3125 5.6875C16.3125 7.14583 15.7917 8.39583 14.75 9.4375C13.7083 10.4792 12.4583 11 11 11C9.54167 11 8.29167 10.4792 7.25 9.4375ZM21.25 12.5C23.4583 12.8333 25.4167 13.4583 27.125 14.375C28.8333 15.25 29.6875 16.3542 29.6875 17.6875V21.6875H24.3125V17.6875C24.3125 15.6458 23.2917 13.9167 21.25 12.5Z" fill="white"/>
</svg>
