<svg width="48" height="48" viewBox="0 0 48 48" fill="none" xmlns="http://www.w3.org/2000/svg">
<path d="M0 24C0 10.7452 10.7452 0 24 0C37.2548 0 48 10.7452 48 24C48 37.2548 37.2548 48 24 48C10.7452 48 0 37.2548 0 24Z" fill="#158E5E"/>
<path d="M16.9375 28.1875C19.3958 27.1875 21.75 26.6875 24 26.6875C26.25 26.6875 28.5833 27.1875 31 28.1875C33.4583 29.1458 34.6875 30.4167 34.6875 32V34.6875H13.3125V32C13.3125 30.4167 14.5208 29.1458 16.9375 28.1875ZM27.75 22.4375C26.7083 23.4792 25.4583 24 24 24C22.5417 24 21.2917 23.4792 20.25 22.4375C19.2083 21.3958 18.6875 20.1458 18.6875 18.6875C18.6875 17.2292 19.2083 15.9792 20.25 14.9375C21.2917 13.8542 22.5417 13.3125 24 13.3125C25.4583 13.3125 26.7083 13.8542 27.75 14.9375C28.7917 15.9792 29.3125 17.2292 29.3125 18.6875C29.3125 20.1458 28.7917 21.3958 27.75 22.4375Z" fill="white"/>
</svg>
