<svg width="15" height="15" viewBox="0 0 15 15" fill="none" xmlns="http://www.w3.org/2000/svg">
<path d="M3.00977 8.05664C3.70247 8.74935 4.54362 9.0957 5.5332 9.0957C6.52279 9.0957 7.36393 8.74935 8.05664 8.05664C8.74935 7.36393 9.0957 6.52279 9.0957 5.5332C9.0957 4.54362 8.74935 3.70247 8.05664 3.00977C7.36393 2.31706 6.52279 1.9707 5.5332 1.9707C4.54362 1.9707 3.70247 2.31706 3.00977 3.00977C2.31706 3.70247 1.9707 4.54362 1.9707 5.5332C1.9707 6.52279 2.31706 7.36393 3.00977 8.05664ZM10.2832 9.0957L14.2168 13.0293L13.0293 14.2168L9.0957 10.2832V9.65234L8.87305 9.42969C7.93294 10.2461 6.81966 10.6543 5.5332 10.6543C4.09831 10.6543 2.8737 10.1595 1.85938 9.16992C0.869792 8.18034 0.375 6.9681 0.375 5.5332C0.375 4.09831 0.869792 2.88607 1.85938 1.89648C2.8737 0.882161 4.09831 0.375 5.5332 0.375C6.9681 0.375 8.18034 0.882161 9.16992 1.89648C10.1595 2.88607 10.6543 4.09831 10.6543 5.5332C10.6543 6.05273 10.5306 6.64648 10.2832 7.31445C10.0358 7.95768 9.7513 8.47721 9.42969 8.87305L9.65234 9.0957H10.2832Z" fill="white"/>
</svg>
