<svg width="17" height="17" viewBox="0 0 17 17" fill="none" xmlns="http://www.w3.org/2000/svg">
<path d="M12.3574 13.7324C12.679 13.4108 13.0501 13.25 13.4707 13.25C13.8913 13.25 14.25 13.4108 14.5469 13.7324C14.8685 14.054 15.0293 14.4251 15.0293 14.8457C15.0293 15.2663 14.8685 15.6374 14.5469 15.959C14.25 16.2559 13.8913 16.4043 13.4707 16.4043C13.0501 16.4043 12.679 16.2559 12.3574 15.959C12.0358 15.6374 11.875 15.2663 11.875 14.8457C11.875 14.4251 12.0358 14.054 12.3574 13.7324ZM0.779297 0.595703H3.37695L4.11914 2.1543H15.8457C16.0684 2.1543 16.2539 2.24089 16.4023 2.41406C16.5508 2.5625 16.625 2.74805 16.625 2.9707C16.625 2.99544 16.5879 3.11914 16.5137 3.3418L13.6934 8.46289C13.3965 9.00716 12.9388 9.2793 12.3203 9.2793H6.41992L5.71484 10.5781L5.67773 10.6895C5.67773 10.8132 5.73958 10.875 5.86328 10.875H15.0293V12.4707H5.5293C5.10872 12.4707 4.73763 12.3099 4.41602 11.9883C4.11914 11.6667 3.9707 11.2956 3.9707 10.875C3.9707 10.6276 4.03255 10.3802 4.15625 10.1328L5.23242 8.16602L2.375 2.1543H0.779297V0.595703ZM4.41602 13.7324C4.73763 13.4108 5.10872 13.25 5.5293 13.25C5.94987 13.25 6.32096 13.4108 6.64258 13.7324C6.96419 14.054 7.125 14.4251 7.125 14.8457C7.125 15.2663 6.96419 15.6374 6.64258 15.959C6.32096 16.2559 5.94987 16.4043 5.5293 16.4043C5.10872 16.4043 4.73763 16.2559 4.41602 15.959C4.11914 15.6374 3.9707 15.2663 3.9707 14.8457C3.9707 14.4251 4.11914 14.054 4.41602 13.7324Z" fill="white"/>
</svg>
