<svg width="48" height="48" viewBox="0 0 48 48" fill="none" xmlns="http://www.w3.org/2000/svg">
<path d="M0 24C0 10.7452 10.7452 0 24 0C37.2548 0 48 10.7452 48 24C48 37.2548 37.2548 48 24 48C10.7452 48 0 37.2548 0 24Z" fill="#158E5E"/>
<path d="M27.25 22.125C27.6667 22.5 28.1458 22.6875 28.6875 22.6875C29.2292 22.6875 29.6875 22.5 30.0625 22.125C30.4792 21.7083 30.6875 21.2292 30.6875 20.6875C30.6875 20.1458 30.4792 19.6875 30.0625 19.3125C29.6875 18.8958 29.2292 18.6875 28.6875 18.6875C28.1458 18.6875 27.6667 18.8958 27.25 19.3125C26.875 19.6875 26.6875 20.1458 26.6875 20.6875C26.6875 21.2292 26.875 21.7083 27.25 22.125ZM19.9375 30.5625C21.1458 31.5208 22.5 32 24 32C25.5 32 26.8542 31.5208 28.0625 30.5625C29.2708 29.5625 30.1458 28.2708 30.6875 26.6875H17.3125C17.8542 28.2708 18.7292 29.5625 19.9375 30.5625ZM20.6875 19.3125C20.3125 18.8958 19.8542 18.6875 19.3125 18.6875C18.7708 18.6875 18.2917 18.8958 17.875 19.3125C17.5 19.6875 17.3125 20.1458 17.3125 20.6875C17.3125 21.2292 17.5 21.7083 17.875 22.125C18.2917 22.5 18.7708 22.6875 19.3125 22.6875C19.8542 22.6875 20.3125 22.5 20.6875 22.125C21.1042 21.7083 21.3125 21.2292 21.3125 20.6875C21.3125 20.1458 21.1042 19.6875 20.6875 19.3125ZM14.5625 14.625C17.1875 12 20.3333 10.6875 24 10.6875C27.6667 10.6875 30.7917 12 33.375 14.625C36 17.2083 37.3125 20.3333 37.3125 24C37.3125 27.6667 36 30.8125 33.375 33.4375C30.7917 36.0208 27.6667 37.3125 24 37.3125C20.3333 37.3125 17.1875 36.0208 14.5625 33.4375C11.9792 30.8125 10.6875 27.6667 10.6875 24C10.6875 20.3333 11.9792 17.2083 14.5625 14.625Z" fill="white"/>
</svg>
