<svg width="48" height="48" viewBox="0 0 48 48" fill="none" xmlns="http://www.w3.org/2000/svg">
<path d="M0 24C0 10.7452 10.7452 0 24 0C37.2548 0 48 10.7452 48 24C48 37.2548 37.2548 48 24 48C10.7452 48 0 37.2548 0 24Z" fill="#158E5E"/>
<path d="M15.625 25.875C17.2083 25.5 18.6667 25.3125 20 25.3125C21.3333 25.3125 22.7917 25.5 24.375 25.875C25.9583 26.25 27.3958 26.875 28.6875 27.75C30.0208 28.625 30.6875 29.6042 30.6875 30.6875V34.6875H9.3125V30.6875C9.3125 29.6042 9.95833 28.625 11.25 27.75C12.5833 26.875 14.0417 26.25 15.625 25.875ZM28 24C27.4583 24 26.875 23.8958 26.25 23.6875C27.4167 22.3125 28 20.6458 28 18.6875C28 17.8958 27.8333 17 27.5 16C27.1667 15 26.75 14.2083 26.25 13.625C26.875 13.4167 27.4583 13.3125 28 13.3125C29.4583 13.3125 30.7083 13.8542 31.75 14.9375C32.7917 15.9792 33.3125 17.2292 33.3125 18.6875C33.3125 20.1458 32.7917 21.3958 31.75 22.4375C30.7083 23.4792 29.4583 24 28 24ZM16.25 22.4375C15.2083 21.3958 14.6875 20.1458 14.6875 18.6875C14.6875 17.2292 15.2083 15.9792 16.25 14.9375C17.2917 13.8542 18.5417 13.3125 20 13.3125C21.4583 13.3125 22.7083 13.8542 23.75 14.9375C24.7917 15.9792 25.3125 17.2292 25.3125 18.6875C25.3125 20.1458 24.7917 21.3958 23.75 22.4375C22.7083 23.4792 21.4583 24 20 24C18.5417 24 17.2917 23.4792 16.25 22.4375ZM30.25 25.5C32.4583 25.8333 34.4167 26.4583 36.125 27.375C37.8333 28.25 38.6875 29.3542 38.6875 30.6875V34.6875H33.3125V30.6875C33.3125 28.6458 32.2917 26.9167 30.25 25.5Z" fill="white"/>
</svg>
